<svg viewBox="0 0 390.1 388" xmlns="http://www.w3.org/2000/svg">
    <style>
        .gear {
            fill: #f3f3f3;
        }
    </style>
    <path class="gear"
        d="M390.1,185.1a199.1,199.1,0,0,0-7.4-45.9c-11.5-1.3-21.8-3-26.7-6.4a160,160,0,0,0-12.8-27.5c.5-6.3,5.7-14.8,12.1-23.8a200.5,200.5,0,0,0-31.2-35.1c-10.1,5-19.2,8.8-25,8.7a173.2,173.2,0,0,0-25.8-16.4c-2.9-5.5-3.1-15.1-2.6-25.8A193.8,193.8,0,0,0,225.3,0c-5.8,9.4-11.2,17.4-16.2,20.4-4.6-.4-9.3-.6-14-.6s-11.1.3-16.5.8C173.2,17.5,167.8,9.7,162.4.4a192,192,0,0,0-45.2,13.5c.3,11,0,20.8-2.5,26A167.1,167.1,0,0,0,89.2,56.6c-6.4.4-15.4-3.5-25.1-8.5A195.7,195.7,0,0,0,33.4,83.5c6.4,9.5,11.7,18.1,12.4,24a168.3,168.3,0,0,0-12.4,27.7c-5.3,3.9-15.4,5.5-26.7,6.5A193.4,193.4,0,0,0,0,187.6c11.1,4.7,20.7,9.3,24.5,14.1a170.4,170.4,0,0,0,4.4,29.6c-2.2,6.3-10.4,13.5-19.8,20.8A189.6,189.6,0,0,0,28,293.8c12.4-2.1,23.6-3.7,29.5-1.5A172.2,172.2,0,0,0,77,314.5c1.7,6.7-1.5,17.6-5.6,29.3a196.1,196.1,0,0,0,38.2,24.6c9.5-8.8,18.3-16.4,24.6-17.8a169.9,169.9,0,0,0,28.3,8.1c5.1,4.8,8.3,15.8,11.2,28.1a191.3,191.3,0,0,0,45.3-.3c3.3-12.6,6.6-23.8,11.2-28.3a169.9,169.9,0,0,0,28.2-8.5c6.8,1.3,15.5,8.8,24.4,17.5a193.9,193.9,0,0,0,38-25.1c-4-12.1-7.2-23.2-5.8-29.4a170.7,170.7,0,0,0,19.2-22.4c6.4-2.5,17.3-1,29.2,1.3a192.5,192.5,0,0,0,18.4-42c-9.5-7.8-17.7-15-19.9-20.8a180.3,180.3,0,0,0,4-29.6c3.9-5.3,13.4-9.8,24.2-14.1m-195,127.6A119.9,119.9,0,1,1,315,192.9,119.8,119.8,0,0,1,195.1,312.7"></path>
</svg>